<?xml version="1.0" encoding="utf-8"?>
<!-- Generator: Adobe Illustrator 25.4.1, SVG Export Plug-In . SVG Version: 6.00 Build 0)  -->
<svg version="1.1" id="Layer_1" xmlns="http://www.w3.org/2000/svg" xmlns:xlink="http://www.w3.org/1999/xlink" x="0px" y="0px"
	 viewBox="0 0 283.46 198.43" style="enable-background:new 0 0 283.46 198.43;" xml:space="preserve">
<style type="text/css">
	.st0{fill:#1D1D1B;}
	.st1{fill:#0067B8;}
	.st2{fill:#C6C6C6;}
	.st3{fill:#DADADA;}
</style>
<g>
	<g>
		<g>
			<g>
				<path class="st0" d="M149.3,117.39l-0.07,0.07h0.09L149.3,117.39z"/>
				<polygon class="st1" points="147.51,117.39 147.44,117.46 139.15,117.46 135.63,105.69 128.9,117.46 120.49,117.46 
					137.95,88.81 				"/>
			</g>
		</g>
		<g>
			<g>
				<path class="st0" d="M149.3,117.39l-0.07,0.07h0.09L149.3,117.39z"/>
				<polygon class="st1" points="178.98,91 157.8,117.46 149.32,117.46 149.3,117.39 159.83,104.2 153.15,91 161.59,91 
					164.88,97.59 170.48,91 				"/>
			</g>
		</g>
		<g>
			<g>
				<polygon class="st1" points="194.08,117.46 185.71,117.46 182.19,105.69 175.46,117.46 167.05,117.46 184.51,88.81 				"/>
			</g>
		</g>
		<g>
			<g>
				<polygon class="st1" points="223.22,91 219.29,119.54 205.26,106.52 203.75,117.46 196.28,117.46 200.21,88.88 214.1,102.84 
					215.73,91 				"/>
			</g>
		</g>
	</g>
	<g>
		<path class="st2" d="M180.84,82.54h2.24c0.37,0,0.61-0.17,0.7-0.52c0.1-0.35-0.04-0.52-0.41-0.52h-5.6l1.69-2.08h4.48
			c1.87,0,2.56,0.87,2.08,2.61c-0.48,1.74-1.65,2.61-3.52,2.61h-2.24l-0.57,2.08h-2.24l1.29-4.69h2.24L180.84,82.54z"/>
		<path class="st2" d="M193.26,79.41h2.24l-1.44,5.21h3.92l-1.69,2.08h-5.04L193.26,79.41z"/>
		<path class="st2" d="M204.28,83.06l1-3.65h2.24l-1,3.65c-0.29,1.04-0.06,1.56,0.69,1.56s1.26-0.52,1.55-1.56l1-3.65h2.24l-1,3.65
			c-0.67,2.43-2.13,3.65-4.37,3.65C204.39,86.71,203.6,85.49,204.28,83.06z"/>
		<path class="st2" d="M220.12,84.1c-1.87,0-2.58-0.79-2.14-2.37c0.42-1.55,1.57-2.32,3.44-2.32h4.48l-1.69,2.08h-3.36
			c-0.37,0-0.58,0.08-0.62,0.24c-0.05,0.19,0.11,0.28,0.48,0.28h1.68c1.87,0,2.59,0.77,2.16,2.32c-0.44,1.58-1.59,2.37-3.45,2.37
			h-4.48l1.69-2.08h3.36c0.37,0,0.59-0.09,0.64-0.28c0.04-0.16-0.12-0.24-0.5-0.24H220.12z"/>
	</g>
	<path class="st1" d="M122.16,99.21c0,17.84-14.45,32.29-32.29,32.29c-9.2,0-17.51-3.85-23.39-10.04H92.2
		c7.81,0,15.4-5.43,18.25-12.63c0.41-1,0.73-2.02,0.93-3.08l0.15-0.78c0.24-1.22,0.32-2.41,0.27-3.53
		c-0.26-6.98-5.64-12.17-13.27-12.17h-8.38c-0.83-1.11-2.17-1.8-3.82-1.8c-1.64,0-3.27,0.7-4.53,1.8c-1.12,0.98-1.93,2.29-2.21,3.73
		c-0.25,1.24-0.05,2.41,0.49,3.34c0.78,1.32,2.25,2.18,4.08,2.18c1.82,0,3.62-0.85,4.91-2.18h8.06c3.88,0,6.7,2.46,7.23,5.86
		c0.13,0.87,0.11,1.8-0.07,2.78l-0.16,0.78c-0.24,1.24-0.75,2.43-1.46,3.51c-1.97,3.03-5.49,5.13-9.1,5.13H72.62l-6.14,7.07
		c-5.51-5.78-8.89-13.62-8.89-22.25c0-17.83,14.45-32.28,32.28-32.28c9.26,0,17.6,3.89,23.48,10.13H87.56
		c-7.81,0-15.39,5.44-18.26,12.63c-0.41,0.99-0.72,2.02-0.92,3.09l-0.16,0.76c-0.24,1.22-0.32,2.41-0.27,3.56
		c0.27,6.96,5.64,12.16,13.29,12.16h8.73c0.82,1,2.12,1.62,3.68,1.62s3.1-0.62,4.31-1.62s2.12-2.38,2.42-3.91
		c0.24-1.19,0.07-2.27-0.4-3.16c-0.74-1.41-2.25-2.35-4.16-2.35c-1.9,0-3.77,0.93-5.07,2.35h-8.12c-3.89,0-6.73-2.45-7.23-5.86
		c-0.14-0.88-0.14-1.81,0.07-2.79l0.14-0.76c0.25-1.25,0.75-2.43,1.46-3.51c1.96-3.03,5.51-5.14,9.11-5.14h21.35l5.84-7.06
		C118.82,82.84,122.16,90.63,122.16,99.21z"/>
	<g>
		<path class="st1" d="M115.56,73.14l-0.01,0.01c0-0.01-0.01-0.01-0.01-0.01H115.56z"/>
	</g>
	<g>
		<g>
			<path class="st3" d="M137.1,124.04h0.61c0.03,0,0.05,0.02,0.04,0.05l-0.54,3.16c-0.15,0.87,0.2,1.46,1.04,1.76
				c0.23,0.06,0.47,0.09,0.7,0.09h1.65c0.94,0,1.65-0.39,2.14-1.18c0.09-0.15,0.18-0.44,0.25-0.86l0.43-2.48
				c0.15-0.36,0.37-0.53,0.68-0.53h0.66c0.03,0,0.05,0.02,0.04,0.05l-0.5,2.9h8.52c0.56,0,0.8,0.2,0.74,0.6l-0.1,0.56
				c-0.01,0.03-0.02,0.05-0.06,0.05h-9.46c-0.39,0.76-0.92,1.31-1.58,1.65c-0.54,0.29-1.13,0.44-1.75,0.44h-2.26
				c-1.08,0-1.86-0.57-2.35-1.72c-0.12-0.39-0.14-0.79-0.07-1.21l0.48-2.79C136.44,124.3,136.68,124.12,137.1,124.04z"/>
			<path class="st3" d="M155.94,121.64h0.64c0.03,0,0.05,0.02,0.04,0.05l-0.78,4.55c-0.07,0.42,0.05,0.67,0.36,0.74l0.15,0.02h2.06
				c-0.02-0.07-0.02-0.19,0.01-0.37l0.76-4.44c0.15-0.37,0.38-0.56,0.68-0.56h0.66c0.03,0,0.05,0.02,0.04,0.05l-0.81,4.71
				c-0.06,0.32,0.1,0.53,0.48,0.6h0.79c0.03,0,0.05,0.02,0.04,0.05l-0.19,1.09c-0.01,0.03-0.02,0.05-0.06,0.05h-5.01
				c-0.51,0-0.91-0.24-1.2-0.72c-0.12-0.2-0.16-0.43-0.13-0.7l0.78-4.55c0.05-0.26,0.22-0.45,0.53-0.56L155.94,121.64z"/>
			<path class="st3" d="M160.86,127.01h4.43c0.44,0,0.62,0.26,0.53,0.77l-0.06,0.37c-0.01,0.03-0.02,0.05-0.06,0.05h-5.04
				c-0.03,0-0.05-0.02-0.04-0.05l0.19-1.09C160.81,127.02,160.83,127.01,160.86,127.01z M161.43,128.67c0.13,0,0.25,0.03,0.37,0.09
				c0.11,0.06,0.19,0.15,0.24,0.26c0.05,0.11,0.07,0.23,0.04,0.36c-0.02,0.12-0.07,0.24-0.16,0.35c-0.09,0.11-0.2,0.2-0.33,0.26
				c-0.13,0.06-0.27,0.09-0.4,0.09c-0.13,0-0.25-0.03-0.37-0.09c-0.11-0.06-0.19-0.15-0.24-0.26c-0.05-0.11-0.06-0.23-0.04-0.35
				c0.02-0.12,0.08-0.24,0.16-0.36c0.09-0.11,0.2-0.2,0.33-0.26C161.17,128.7,161.3,128.67,161.43,128.67z M163.11,128.67
				c0.13,0,0.25,0.03,0.37,0.09c0.11,0.06,0.19,0.15,0.25,0.26c0.05,0.11,0.06,0.23,0.04,0.36c-0.02,0.12-0.07,0.24-0.16,0.35
				c-0.09,0.11-0.2,0.2-0.33,0.26c-0.13,0.06-0.27,0.09-0.4,0.09c-0.13,0-0.25-0.03-0.37-0.09c-0.11-0.06-0.19-0.15-0.24-0.26
				c-0.05-0.11-0.06-0.23-0.04-0.35c0.02-0.12,0.08-0.24,0.16-0.36c0.09-0.11,0.2-0.2,0.33-0.26
				C162.85,128.7,162.98,128.67,163.11,128.67z M164.79,128.67c0.13,0,0.25,0.03,0.37,0.09c0.11,0.06,0.19,0.15,0.24,0.26
				c0.05,0.11,0.07,0.23,0.04,0.36c-0.02,0.12-0.07,0.24-0.16,0.35c-0.09,0.11-0.2,0.2-0.33,0.26c-0.13,0.06-0.27,0.09-0.4,0.09
				c-0.13,0-0.25-0.03-0.37-0.09c-0.11-0.06-0.19-0.15-0.24-0.26c-0.05-0.11-0.06-0.23-0.04-0.35c0.02-0.12,0.08-0.24,0.16-0.36
				c0.09-0.11,0.2-0.2,0.33-0.26C164.53,128.7,164.66,128.67,164.79,128.67z"/>
			<path class="st1" d="M171.24,124.04h0.61c0.03,0,0.05,0.02,0.04,0.05l-0.56,3.23c-0.14,0.82,0.22,1.39,1.08,1.69
				c0.2,0.06,0.42,0.09,0.67,0.09h1.65c0.94,0,1.66-0.4,2.14-1.21c0.08-0.16,0.13-0.32,0.16-0.49l0.47-2.74
				c0.14-0.42,0.37-0.63,0.69-0.63h0.66c0.03,0,0.05,0.02,0.04,0.05l-0.55,3.18c-0.21,1.21-0.93,2.11-2.17,2.72
				c-0.47,0.2-0.94,0.3-1.4,0.3h-2.31c-1.05,0-1.83-0.55-2.34-1.65c-0.13-0.44-0.16-0.86-0.08-1.28l0.48-2.79
				C170.59,124.3,170.82,124.12,171.24,124.04z M174.53,125.24c0.17,0,0.32,0.04,0.46,0.11c0.14,0.08,0.24,0.18,0.31,0.33
				c0.06,0.14,0.08,0.29,0.06,0.45c-0.03,0.15-0.09,0.3-0.2,0.44c-0.11,0.14-0.25,0.25-0.42,0.33c-0.17,0.08-0.34,0.12-0.51,0.12
				c-0.17,0-0.32-0.04-0.46-0.12c-0.14-0.08-0.24-0.19-0.3-0.33c-0.06-0.14-0.08-0.28-0.05-0.44c0.03-0.15,0.1-0.3,0.21-0.45
				c0.11-0.14,0.25-0.25,0.42-0.33C174.21,125.28,174.37,125.24,174.53,125.24z"/>
			<path class="st1" d="M180.6,121.64h0.59c0.03,0,0.05,0.02,0.04,0.05l-0.79,4.6c-0.06,0.37,0.06,0.6,0.36,0.7l0.15,0.02h0.73
				c0.03,0,0.05,0.02,0.04,0.05l-0.19,1.09c-0.01,0.03-0.02,0.05-0.06,0.05h-1.06c-0.51,0-0.91-0.24-1.2-0.72
				c-0.12-0.2-0.16-0.43-0.13-0.7l0.78-4.55C179.97,121.84,180.22,121.64,180.6,121.64z"/>
			<path class="st1" d="M181.63,127.01h4.43c0.42,0.04,0.6,0.24,0.54,0.58l-0.1,0.56c-0.01,0.03-0.03,0.05-0.06,0.05h-5.01
				c-0.03,0-0.05-0.02-0.04-0.05l0.19-1.09C181.58,127.02,181.6,127.01,181.63,127.01z M182.98,128.67c0.13,0,0.25,0.03,0.37,0.09
				c0.11,0.06,0.19,0.15,0.24,0.26c0.05,0.11,0.06,0.23,0.04,0.36c-0.02,0.12-0.07,0.24-0.16,0.35c-0.09,0.11-0.2,0.2-0.33,0.26
				c-0.13,0.06-0.27,0.09-0.4,0.09c-0.13,0-0.25-0.03-0.37-0.09c-0.11-0.06-0.19-0.15-0.24-0.26c-0.05-0.11-0.06-0.23-0.04-0.35
				c0.02-0.12,0.08-0.24,0.16-0.36c0.09-0.11,0.2-0.2,0.33-0.26C182.72,128.7,182.85,128.67,182.98,128.67z M184.66,128.67
				c0.13,0,0.25,0.03,0.37,0.09c0.11,0.06,0.19,0.15,0.25,0.26c0.05,0.11,0.06,0.23,0.04,0.36c-0.02,0.12-0.07,0.24-0.16,0.35
				c-0.09,0.11-0.2,0.2-0.33,0.26c-0.13,0.06-0.27,0.09-0.4,0.09c-0.13,0-0.25-0.03-0.37-0.09c-0.11-0.06-0.19-0.15-0.24-0.26
				c-0.05-0.11-0.06-0.23-0.04-0.35c0.02-0.12,0.08-0.24,0.16-0.36c0.09-0.11,0.2-0.2,0.33-0.26
				C184.4,128.7,184.53,128.67,184.66,128.67z"/>
			<path class="st1" d="M188.85,121.64h0.59c0.03,0,0.05,0.02,0.04,0.05l-0.79,4.6c-0.06,0.37,0.06,0.6,0.36,0.7l0.15,0.02h0.73
				c0.03,0,0.05,0.02,0.04,0.05l-0.19,1.09c-0.01,0.03-0.02,0.05-0.06,0.05h-1.06c-0.51,0-0.91-0.24-1.2-0.72
				c-0.12-0.2-0.16-0.43-0.13-0.7l0.78-4.55C188.23,121.84,188.47,121.64,188.85,121.64z"/>
			<path class="st1" d="M189.89,127.01h8.52c0.38,0.08,0.54,0.26,0.49,0.53l-0.1,0.6c-0.01,0.03-0.02,0.05-0.06,0.05h-9.06
				c-0.03,0-0.05-0.02-0.04-0.05l0.19-1.09C189.84,127.02,189.86,127.01,189.89,127.01z"/>
		</g>
		<polygon class="st1" points="205.21,128.19 196.51,128.19 196.51,127.01 205.47,127.01 		"/>
	</g>
</g>
</svg>
